# xmcd CD database file
#
# Track frame offsets:
#	150
#	36251
#	60871
#	94579
#	124794
#	145463
#	150044
#	157394
#	171348
#	195619
#	218882
#
# Disc length: 3239 seconds
#
# Revision: 0
# Processed by: cddbd v1.5.2PL0 Copyright (c) Steve Scherf et al.
# Submitted via: CDex 1.51
#
DISCID=940ca50b
DTITLE=Ketil Bjørnstad - Terje Rypdal - Life in Leipzig
DYEAR=2008
DGENRE=Jazz
TTITLE0=The Sea V (Bjørnstad)
TTITLE1=The Pleasure Is Mine, I'm Sure (Rypdal)
TTITLE2=The Sea II (Bjørnstad)
TTITLE3=Flotation And Surroundings (Bjørnstad)
TTITLE4=Easy Now (Rypdal)
TTITLE5=Notturno (fragment) (Edvard Grieg)
TTITLE6=Alai's Room (Bjørnstad)
TTITLE7=By The Fjord (Bjørnstad)
TTITLE8=The Sea IX (Bjørnstad)
TTITLE9=Le Manfred/Foran Peisen (Rypdal)
TTITLE10=The Return Of Per Ulv (Rypdal)
EXTD=YEAR: 2008
EXTT0=
EXTT1=
EXTT2=
EXTT3=
EXTT4=
EXTT5=
EXTT6=
EXTT7=
EXTT8=
EXTT9=
EXTT10=
PLAYORDER=
